<svg width="16" height="15" fill="none" xmlns="http://www.w3.org/2000/svg">
    <path d="M11.72 14.89H4.279C1.563 14.89 0 13.329 0 10.613V5.404c0-2.716 1.563-4.279 4.279-4.279h3.72c.305 0 .558.253.558.558A.562.562 0 0 1 8 2.241h-3.72c-2.129 0-3.163 1.034-3.163 3.163v5.208c0 2.128 1.034 3.163 3.163 3.163h7.44c2.129 0 3.163-1.035 3.163-3.163V7.636c0-.305.253-.558.558-.558.305 0 .558.253.558.558v2.976c0 2.716-1.563 4.279-4.278 4.279Z" fill="#B5B9C3"/>
    <path d="M7.995 8.65c-.625 0-1.257-.193-1.74-.587l-2.33-1.86a.556.556 0 0 1 .692-.871l2.33 1.86c.565.454 1.525.454 2.09 0a.55.55 0 0 1 .781.09.55.55 0 0 1-.089.78c-.476.395-1.109.589-1.734.589ZM11.53 6.332c-.306 0-.514-.104-.648-.2-.246-.18-.625-.626-.402-1.608l.037-.156c.015-.06-.03-.201-.067-.246l-.26-.26c-.44-.447-.61-.967-.462-1.436.15-.462.588-.789 1.206-.893l.283-.045a.43.43 0 0 0 .186-.141l.208-.424C11.9.335 12.348 0 12.839 0c.49 0 .937.335 1.227.923l.209.424a.444.444 0 0 0 .186.141l.283.045c.617.104 1.056.431 1.205.893.149.461-.015.982-.461 1.436l-.26.26c-.038.045-.083.186-.068.246l.037.156c.224.982-.156 1.429-.401 1.607-.246.179-.782.395-1.637-.119l-.186-.111a.37.37 0 0 0-.253 0l-.194.111c-.402.238-.736.32-.997.32Zm1.301-5.208c-.007.007-.111.081-.215.297l-.209.424a1.472 1.472 0 0 1-.997.744l-.283.045c-.238.037-.32.12-.327.134 0 .015.022.134.193.305l.26.26c.306.313.462.849.365 1.273l-.037.156c-.06.268-.037.41-.022.462.015-.015.149-.03.394-.179l.194-.112c.409-.245.997-.245 1.406 0l.186.112c.246.149.372.164.417.164-.008-.023.022-.157-.045-.447l-.037-.156c-.097-.432.06-.96.364-1.272l.26-.26c.172-.172.194-.291.194-.313-.007-.015-.089-.09-.327-.134l-.283-.045a1.457 1.457 0 0 1-.997-.744l-.208-.417c-.12-.223-.216-.29-.246-.297Z" fill="#B5B9C3"/>
</svg>
