<svg width="104" height="68" fill="none" xmlns="http://www.w3.org/2000/svg">
    <path d="M80.944 17.246c-1.785-6.57-8.618-13.405-15.19-15.19C61.724 1.052 56.327.017 49 0c-7.327.017-12.725 1.052-16.754 2.056-6.57 1.785-13.405 8.618-15.19 15.19C16.052 21.276 15.017 26.673 15 34c.017 7.327 1.052 12.725 2.056 16.754 1.785 6.572 8.62 13.405 15.19 15.19C36.276 66.948 41.676 67.983 49 68c7.326-.017 12.725-1.052 16.754-2.056 6.572-1.785 13.405-8.618 15.19-15.19C81.948 46.724 82.983 41.324 83 34c-.017-7.327-1.052-12.725-2.056-16.754Z" fill="#F9F1FF"/>
    <path fill-rule="evenodd" clip-rule="evenodd" d="M53.697 24.998v-4.033c0-3.045-2.339-5.536-5.197-5.536s-5.197 2.491-5.197 5.536v4.033h-4.157v-4.033c0-5.48 4.21-9.965 9.354-9.965 5.145 0 9.354 4.484 9.354 9.965v4.033h-4.157ZM63 30.543v16.995C63 49.442 61.538 51 59.75 51h-22.5C35.461 51 34 49.442 34 47.538V30.543c0-1.904 1.462-3.462 3.25-3.462h22.5c1.788 0 3.25 1.558 3.25 3.462Zm-11.767 5.84c0-1.607-1.224-2.91-2.733-2.91-1.51 0-2.733 1.303-2.733 2.91 0 .99.464 1.864 1.172 2.39v4.172c0 .915.702 1.664 1.561 1.664s1.561-.749 1.561-1.664v-4.172a2.966 2.966 0 0 0 1.172-2.39Z" fill="#812D9E"/>
    <path d="M6.12 44.17a.4.4 0 0 1 .76 0l.99 3.045a.4.4 0 0 0 .38.276h3.2a.4.4 0 0 1 .236.724l-2.59 1.881a.4.4 0 0 0-.145.448l.99 3.044a.4.4 0 0 1-.616.447l-2.59-1.881a.4.4 0 0 0-.47 0l-2.59 1.881a.4.4 0 0 1-.615-.447l.989-3.044a.4.4 0 0 0-.145-.448l-2.59-1.881a.4.4 0 0 1 .235-.724H4.75a.4.4 0 0 0 .38-.276l.99-3.044ZM89.62 10.17a.4.4 0 0 1 .76 0l.428 1.318a.4.4 0 0 0 .38.276h1.385a.4.4 0 0 1 .235.724l-1.12.813a.4.4 0 0 0-.145.447l.428 1.317a.4.4 0 0 1-.616.447l-1.12-.813a.4.4 0 0 0-.47 0l-1.12.813a.4.4 0 0 1-.616-.447l.428-1.316a.4.4 0 0 0-.145-.448l-1.12-.813a.4.4 0 0 1 .235-.724h1.384a.4.4 0 0 0 .38-.276l.429-1.317ZM91.049 46.927c.3-.921 1.603-.921 1.902 0l1.519 4.674a1 1 0 0 0 .95.69h4.915c.969 0 1.371 1.24.588 1.81l-3.976 2.888a1 1 0 0 0-.363 1.118l1.518 4.674c.3.922-.755 1.688-1.538 1.118l-3.976-2.888a1 1 0 0 0-1.176 0l-3.976 2.888c-.783.57-1.838-.197-1.538-1.118l1.518-4.674a1 1 0 0 0-.363-1.118l-3.976-2.888c-.784-.57-.38-1.81.588-1.81h4.914a1 1 0 0 0 .951-.69l1.519-4.674Z" fill="#F9F1FF"/>
</svg>
