<svg width="16" height="16" fill="none" xmlns="http://www.w3.org/2000/svg">
    <path d="M12.465 7.07a.562.562 0 0 1-.558-.558V5.023c0-2.344-.662-3.907-3.907-3.907S4.093 2.68 4.093 5.023v1.489a.562.562 0 0 1-.558.558.562.562 0 0 1-.558-.558V5.023C2.977 2.865 3.497 0 8 0c4.502 0 5.023 2.865 5.023 5.023v1.489a.562.562 0 0 1-.558.558ZM8 13.4a2.423 2.423 0 0 1-2.418-2.419 2.423 2.423 0 0 1 2.419-2.418 2.423 2.423 0 0 1 2.418 2.418A2.423 2.423 0 0 1 8.001 13.4Zm0-3.721c-.714 0-1.302.588-1.302 1.302 0 .714.588 1.302 1.303 1.302.714 0 1.302-.588 1.302-1.302 0-.714-.588-1.302-1.302-1.302Z" fill="#B5B9C3"/>
    <path d="M11.72 16H4.28C.996 16 0 15.002 0 11.72v-1.488C0 6.95.997 5.953 4.28 5.953h7.44c3.283 0 4.28.997 4.28 4.28v1.488C16 15.002 15.003 16 11.72 16ZM4.28 7.07c-2.665 0-3.164.505-3.164 3.162v1.489c0 2.656.499 3.162 3.163 3.162h7.442c2.664 0 3.163-.506 3.163-3.162v-1.489c0-2.657-.499-3.163-3.163-3.163H4.279Z" fill="#B5B9C3"/>
</svg>
