<svg width="143" height="75" fill="none" xmlns="http://www.w3.org/2000/svg"><path d="M9.53 46.553H0V1h8.782L28.65 30.055V1h9.53v45.553h-8.907L9.529 18.359v28.194zM85.488 46.553h-32.59V1h32.268v8.249h-22.95v10.218H82.2v7.941H62.216v10.896h23.272v8.249z" fill="#250E3E"/><path d="M117.857 29.574L94.617 1h9.545l18.26 22.776-4.565 5.798zM124.91 20.878l-4.98-6.212L130.304 1h9.96L124.91 20.878zM110.385 26.676l-14.94 19.877h9.96l9.96-14.08-4.98-5.797zM131.552 46.553l-11.204-14.08 4.316-5.797 16.433 19.877h-9.545z" fill="#250E3E" stroke="#250E3E"/><path d="M118.408 64.47V59h2.621v14.806h-2.537V72.31c-.728 1.082-1.851 1.747-3.39 1.747-2.974 0-4.825-2.204-4.825-5.615 0-3.41 1.851-5.615 4.825-5.615 1.476 0 2.579.603 3.306 1.643zm-2.703 7.423c1.705 0 2.766-1.185 2.766-3.452s-1.061-3.452-2.766-3.452c-1.684 0-2.745 1.269-2.745 3.535 0 2.267 1.061 3.37 2.745 3.37zM109.185 62.91c.229 0 .416 0 .645.042v2.412h-.666c-1.934 0-3.098.957-3.098 2.995v5.448h-2.621v-10.73h2.537v1.913c.52-1.206 1.539-2.08 3.203-2.08zM101.884 73.808h-2.62c-.167-.291-.25-.79-.292-1.31-.707.998-1.871 1.56-3.452 1.56-2.287 0-3.868-1.144-3.868-3.224 0-1.788 1.082-3.056 4.118-3.348l1.622-.145c.998-.125 1.518-.437 1.518-1.227 0-.832-.437-1.331-1.955-1.331-1.497 0-2.12.395-2.225 1.705h-2.579c.146-2.267 1.477-3.66 4.825-3.66 3.203 0 4.471 1.29 4.471 3.223v5.72c0 .769.146 1.621.437 2.037zm-5.74-1.622c1.393 0 2.766-.749 2.766-2.62v-.978c-.27.25-.665.375-1.227.437l-1.414.167c-1.456.166-1.934.686-1.934 1.538 0 .895.603 1.456 1.81 1.456zM85.262 74.058c-3.265 0-5.469-2.205-5.469-5.615s2.204-5.615 5.47-5.615c3.264 0 5.448 2.204 5.448 5.615 0 3.41-2.184 5.615-5.449 5.615zm0-2.163c1.685 0 2.787-1.185 2.787-3.452s-1.102-3.452-2.787-3.452c-1.705 0-2.786 1.185-2.786 3.452s1.081 3.452 2.786 3.452zM73.83 62.826c2.953 0 4.804 2.205 4.804 5.615s-1.85 5.615-4.804 5.615c-1.56 0-2.703-.665-3.43-1.788v1.538h-2.517V59h2.62v5.47c.728-1.04 1.83-1.644 3.327-1.644zm-.623 9.067c1.705 0 2.765-1.268 2.765-3.535 0-2.267-1.06-3.369-2.765-3.369-1.706 0-2.766 1.185-2.766 3.452s1.06 3.452 2.766 3.452zM61.99 62.826c2.247 0 3.765 1.31 3.765 3.868v7.112h-2.62v-6.675c0-1.373-.687-2.038-2.018-2.038-1.144 0-2.391.79-2.391 2.703v6.01h-2.62V59h2.62v5.51c.707-.977 1.809-1.684 3.265-1.684zM49.95 74.1c-3.056 0-4.74-1.103-4.907-3.702h2.558c.145 1.351.832 1.83 2.391 1.83 1.518 0 2.121-.479 2.121-1.29 0-.77-.478-1.143-2.1-1.414l-1.227-.208c-2.308-.395-3.514-1.414-3.514-3.244 0-2.017 1.58-3.244 4.45-3.244 3.306 0 4.658 1.435 4.741 3.64H51.99c-.063-1.373-.915-1.768-2.267-1.768-1.269 0-1.872.478-1.872 1.248 0 .79.624 1.102 1.789 1.31l1.351.208c2.58.457 3.723 1.414 3.723 3.264 0 2.163-1.768 3.37-4.762 3.37zM44.087 73.808h-2.62c-.167-.291-.25-.79-.291-1.31-.708.998-1.872 1.56-3.453 1.56-2.287 0-3.867-1.144-3.867-3.224 0-1.788 1.08-3.056 4.117-3.348l1.622-.145c.998-.125 1.518-.437 1.518-1.227 0-.832-.437-1.331-1.955-1.331-1.497 0-2.12.395-2.225 1.705h-2.578c.145-2.267 1.476-3.66 4.824-3.66 3.203 0 4.471 1.29 4.471 3.223v5.72c0 .769.146 1.621.437 2.037zm-5.74-1.622c1.394 0 2.766-.749 2.766-2.62v-.978c-.27.25-.665.375-1.227.437l-1.414.167c-1.456.166-1.934.686-1.934 1.538 0 .895.603 1.456 1.81 1.456zM25.516 59c4.824 0 7.424 2.89 7.424 7.403s-2.6 7.403-7.424 7.403h-5.657V59h5.657zm-2.85 12.394h2.808c2.87 0 4.554-1.705 4.554-4.99 0-3.286-1.684-4.992-4.554-4.992h-2.807v9.982z" fill="#250E3E"/></svg>